<svg id="Layer_2" data-name="Layer 2" xmlns="http://www.w3.org/2000/svg" viewBox="0 0 289 77" class=""><defs><style>.cls-1,.cls-2{fill:none;stroke:#455a64;stroke-miterlimit:10;}.cls-1{stroke-width:0.25px;}.cls-2{stroke-width:0.5px;}</style></defs><title>birdge</title><path class="cls-1 OIkZqjDn_0" d="M287.2,69.2H.68v-6H287.2Z"></path><path class="cls-1 OIkZqjDn_1" d="M246.86,75.87H234.58V73.76s3-.71,3-4.56h5.68s.46,4.46,3.48,4.65C246.77,73.85,246.86,76,246.86,75.87Z"></path><path class="cls-1 OIkZqjDn_2" d="M226.88,75.87H214.6V73.76a4.33,4.33,0,0,0,3.08-4.54h5.68s.4,4.45,3.43,4.63C226.79,73.85,226.88,76,226.88,75.87Z"></path><path class="cls-1 OIkZqjDn_3" d="M282.63,56.52L281.63,56.34L281.65,49.95L282.63,50.32L282.63,56.52Z"></path><path class="cls-1 OIkZqjDn_4" d="M275.63,54.68L274.63,54.34L274.63,46.98L275.63,47.51L275.63,54.68Z"></path><path class="cls-1 OIkZqjDn_5" d="M268.68,51.98L267.63,51.5L267.68,43.25L268.68,43.93L268.68,51.98Z"></path><path class="cls-1 OIkZqjDn_6" d="M261.79,48.61L260.79,48.01L260.79,38.52L261.79,39.28L261.79,48.61Z"></path><path class="cls-1 OIkZqjDn_7" d="M254.69,44.15L253.69,43.47L253.69,32.09L254.69,33.13L254.69,44.15Z"></path><path class="cls-1 OIkZqjDn_8" d="M247.86,39.01L246.86,38.05L246.86,23.52L247.86,24.91L247.86,39.01Z"></path><path class="cls-1 OIkZqjDn_9" d="M285.86,63.21L284.86,63.21L284.87,59.84L285.86,60.03L285.86,63.21Z"></path><path class="cls-1 OIkZqjDn_10" d="M278.9,63.21L277.9,63.21L277.9,58.3L278.9,58.55L278.9,63.21Z"></path><path class="cls-1 OIkZqjDn_11" d="M271.9,63.21L270.9,63.21L270.9,56.05L271.9,56.4L271.9,63.21Z"></path><path class="cls-1 OIkZqjDn_12" d="M264.9,63.21L263.9,63.21L263.9,53.08L264.9,53.54L264.9,63.21Z"></path><path class="cls-1 OIkZqjDn_13" d="M257.9,63.21L256.9,63.21L256.9,49.26L257.9,49.88L257.9,63.21Z"></path><path class="cls-1 OIkZqjDn_14" d="M250.86,63.21L249.86,63.21L249.86,44.52L250.86,45.17L250.86,63.21Z"></path><path class="cls-1 OIkZqjDn_15" d="M243.81,63.21L242.81,63.21L242.81,38.73L243.81,39.58L243.81,63.21Z"></path><path class="cls-1 OIkZqjDn_16" d="M236.9,63.21L235.9,63.21L235.9,31.34L236.9,32.45L236.9,63.21Z"></path><path class="cls-1 OIkZqjDn_17" d="M229.81,63.21L228.81,63.21L228.81,22L229.81,23.47L229.81,63.21Z"></path><path class="cls-1 OIkZqjDn_18" d="M155.54,63.21L156.54,63.21L156.52,58.06L155.54,58.21L155.54,63.21Z"></path><path class="cls-1 OIkZqjDn_19" d="M149.68,63.21L150.68,63.21L150.66,58.92L149.68,59.05L149.68,63.21Z"></path><path class="cls-1 OIkZqjDn_20" d="M162.5,63.21L163.5,63.21L163.5,56.37L162.5,56.62L162.5,63.21Z"></path><path class="cls-1 OIkZqjDn_21" d="M223.68,5.45l13.88,2.94.81-.81L239,6.34h3.23L243,8h.51v2.86c14,31.35,43.84,37.74,43.84,37.74v3s-30.47-7-43.62-33.78V35.19"></path><path class="cls-1 OIkZqjDn_22" d="M227,12.77,237,15.37l-4.91,5.7a21.55,21.55,0,0,0,3,4.36l2.42-4.12-.12,6.79"></path><path class="cls-1 OIkZqjDn_23" d="M223.57,15.92s4.67,7.7,5.21,8.3"></path><path class="cls-1 OIkZqjDn_24" d="M223.63,31.07L228.9,24.95"></path><path class="cls-1 OIkZqjDn_25" d="M232.59,29.92L229.75,33.61L229.87,35.61L235.93,37.25L235.81,34.89L232.59,29.92Z"></path><path class="cls-1 OIkZqjDn_26" d="M238.59,10.65L238.41,13.56L235.56,13.01L235.63,10.04L238.59,10.65Z"></path><path class="cls-1 OIkZqjDn_27" d="M238.59,10.65L235.56,13.01"></path><path class="cls-1 OIkZqjDn_28" d="M238.41,13.56L235.63,10.04"></path><path class="cls-1 OIkZqjDn_29" d="M234.9,9.86L235.02,12.71L231.93,12.1L231.81,9.25L234.9,9.86Z"></path><path class="cls-1 OIkZqjDn_30" d="M234.9,9.86L231.93,12.1"></path><path class="cls-1 OIkZqjDn_31" d="M231.81,9.25L235.02,12.71"></path><path class="cls-1 OIkZqjDn_32" d="M231.08,8.95L231.2,11.86L228.47,11.38L228.41,8.35L231.08,8.95Z"></path><path class="cls-1 OIkZqjDn_33" d="M231.08,8.95L228.47,11.37"></path><path class="cls-1 OIkZqjDn_34" d="M231.2,11.86L228.41,8.35"></path><path class="cls-1 OIkZqjDn_35" d="M227.57,11.07L224.6,7.62L227.57,8.22L227.57,11.07L225.99,10.89"></path><path class="cls-2 OIkZqjDn_36" d="M227.57,8.22L225.44,9.86"></path><path class="cls-1 OIkZqjDn_37" d="M235.75,43.73L229.93,42.52"></path><path class="cls-1 OIkZqjDn_38" d="M228.72,42.34L225.69,41.55L228.79,45.87L228.72,42.34Z"></path><path class="cls-1 OIkZqjDn_39" d="M235.87,44.64L231.63,49.73L229.79,47.18"></path><path class="cls-1 OIkZqjDn_40" d="M235.91,50.74L234.03,52.85L235.82,55.62L235.91,50.74Z"></path><path class="cls-1 OIkZqjDn_41" d="M237.61,48.75L236.92,49.66L236.92,57.38L237.48,58.06L237.61,48.75Z"></path><path class="cls-1 OIkZqjDn_42" d="M223.54,45.56L228.79,52.82L223.51,59.17L223.54,45.56Z"></path><path class="cls-1 OIkZqjDn_43" d="M235.9,63.21L229.84,63.2L229.84,57.93L231.22,56.2L235.9,63.21Z"></path><path class="cls-1 OIkZqjDn_44" d="M228.81,59.2L225.61,63.22L223.57,63.22L223.57,59.1"></path><path class="cls-1 OIkZqjDn_45" d="M238.52,39.44L238.52,42.6L237.06,42.29L236.83,39.13L238.52,39.44Z"></path><path class="cls-1 OIkZqjDn_46" d="M238.52,39.44L236.98,40.98L238.52,42.6"></path><path class="cls-1 OIkZqjDn_47" d="M234.98,38.83L234.98,41.6L231.97,40.75L232.05,37.98L234.98,38.83Z"></path><path class="cls-1 OIkZqjDn_48" d="M234.98,38.82L231.97,40.75"></path><path class="cls-1 OIkZqjDn_49" d="M234.98,41.6L232.05,37.98"></path><path class="cls-1 OIkZqjDn_50" d="M231.28,37.82L231.2,40.75L229.89,40.29L229.97,37.44L231.28,37.82Z"></path><path class="cls-1 OIkZqjDn_51" d="M231.28,37.82L230.05,38.83L231.2,40.75"></path><path class="cls-1 OIkZqjDn_52" d="M227.66,36.9L227.66,39.9L224.73,39.36L224.66,36.28L227.66,36.9Z"></path><path class="cls-1 OIkZqjDn_53" d="M227.66,36.9L224.73,39.36"></path><path class="cls-1 OIkZqjDn_54" d="M227.66,39.9L224.66,36.28"></path><path class="cls-1 OIkZqjDn_55" d="M169.5,63.04L169.5,54.31L170.5,53.93L170.5,62.89"></path><path class="cls-1 OIkZqjDn_56" d="M169.5,63.04L169.5,63.21L170.5,63.21L170.5,62.89"></path><path class="cls-1 OIkZqjDn_57" d="M176.5,61.75L176.5,63.21L177.5,63.21L177.5,61.52"></path><path class="cls-1 OIkZqjDn_58" d="M176.5,61.75L176.5,51.36L177.5,50.79L177.5,61.52"></path><path class="cls-1 OIkZqjDn_59" d="M183.5,59.89L183.5,62.68"></path><path class="cls-1 OIkZqjDn_60" d="M183.5,59.88L183.5,47.52L184.5,46.96L184.5,59.58"></path><path class="cls-1 OIkZqjDn_61" d="M184.5,59.58L184.5,62.37"></path><path class="cls-1 OIkZqjDn_62" d="M184.5,62.37L184.5,63.21L183.5,63.21L183.5,62.68"></path><path class="cls-1 OIkZqjDn_63" d="M191.54,59.95L191.54,63.21L190.54,63.21L190.54,60.31"></path><path class="cls-1 OIkZqjDn_64" d="M190.54,57.44L190.54,42.91L191.54,42.2L191.54,57.05"></path><path class="cls-1 OIkZqjDn_65" d="M190.54,57.44L190.54,60.31"></path><path class="cls-1 OIkZqjDn_66" d="M191.54,57.05L191.54,59.95"></path><path class="cls-1 OIkZqjDn_67" d="M197.58,54.41L197.58,57.58"></path><path class="cls-1 OIkZqjDn_68" d="M198.58,53.92L198.58,57.15"></path><path class="cls-1 OIkZqjDn_69" d="M198.58,57.15L198.58,63.21L197.58,63.21L197.58,57.58"></path><path class="cls-1 OIkZqjDn_70" d="M197.58,54.41L197.58,37.26L198.58,36.34L198.58,53.92"></path><path class="cls-1 OIkZqjDn_71" d="M204.5,50.83L204.5,54.43"></path><path class="cls-1 OIkZqjDn_72" d="M205.5,53.92L205.5,63.21L204.5,63.21L204.5,54.43"></path><path class="cls-1 OIkZqjDn_73" d="M205.5,50.26L205.5,53.92"></path><path class="cls-1 OIkZqjDn_74" d="M204.5,50.83L204.5,30.59L205.5,29.55L205.5,50.26"></path><path class="cls-1 OIkZqjDn_75" d="M211.58,46.5L211.58,50.43"></path><path class="cls-1 OIkZqjDn_76" d="M212.61,45.8L212.6,49.75"></path><path class="cls-1 OIkZqjDn_77" d="M212.61,45.8L212.65,21.12L211.58,22.55L211.58,46.5"></path><path class="cls-1 OIkZqjDn_78" d="M211.58,50.43L211.58,63.21L212.58,63.21L212.6,49.75"></path><path class="cls-1 OIkZqjDn_79" d="M176.5,61.75q-2.93.66-6,1.14"></path><path class="cls-1 OIkZqjDn_80" d="M212.61,45.8c3.16-2.17,4.9-3.63,4.9-3.63s.11,3.46.11,3.46a32.68,32.68,0,0,1-5,4.13"></path><path class="cls-1 OIkZqjDn_81" d="M211.58,50.43a69.4,69.4,0,0,1-6.08,3.49"></path><path class="cls-1 OIkZqjDn_82" d="M191.54,57c2.12-.85,4.14-1.74,6-2.64"></path><path class="cls-1 OIkZqjDn_83" d="M184.5,59.58c2.09-.67,4.11-1.39,6-2.14"></path><path class="cls-1 OIkZqjDn_84" d="M190.54,60.31c-2.42.88-4.51,1.57-6,2.05"></path><path class="cls-1 OIkZqjDn_85" d="M204.5,54.43c-2,1-4,1.89-5.92,2.72"></path><path class="cls-1 OIkZqjDn_86" d="M177.5,61.52c2.06-.49,4.06-1,6-1.64"></path><path class="cls-1 OIkZqjDn_87" d="M197.58,57.58c-2.11.88-4.16,1.67-6,2.37"></path><path class="cls-1 OIkZqjDn_88" d="M205.5,50.26c2.34-1.35,4.38-2.63,6.08-3.77"></path><path class="cls-1 OIkZqjDn_89" d="M169.5,63c-.86.12-1.73.11-2.6.21l14.9-.06,1.7-.51"></path><path class="cls-1 OIkZqjDn_90" d="M198.58,53.92c2.13-1,4.11-2.08,5.92-3.09"></path><path class="cls-1 OIkZqjDn_91" d="M.82,69.2H287.34v-6H.82Z"></path><path class="cls-1 OIkZqjDn_92" d="M41.16,75.87H53.44V73.76s-3-.71-3-4.56H44.73s-.46,4.46-3.48,4.65C41.25,73.85,41.16,76,41.16,75.87Z"></path><path class="cls-1 OIkZqjDn_93" d="M61.14,75.87H73.43V73.76a4.33,4.33,0,0,1-3.08-4.54H64.66s-.4,4.45-3.43,4.63C61.23,73.85,61.14,76,61.14,75.87Z"></path><path class="cls-1 OIkZqjDn_94" d="M64.51,63.17V12.55S47,53.06.91,60.23V57.36s43-4.22,63.68-52.06V3.08h.8l.72-1.51,2.95-.16.8,1.51.72.16.16,4.17s20.06,46,73,49.24h.59c52.93-3.26,73-49.24,73-49.24l.16-4.17.72-.16L219,1.4l2.95.16.72,1.51h.8V5.3c20.7,47.84,63.68,52.06,63.68,52.06v2.87c-46.09-7.16-63.6-47.68-63.6-47.68V63.17"></path><path class="cls-1 OIkZqjDn_95" d="M70.42,63.29V13.58s24.64,44,73.57,45.86h0c48.93-1.91,73.57-45.86,73.57-45.86V63.29"></path><path class="cls-1 OIkZqjDn_96" d="M5.39,56.52L6.39,56.34L6.37,49.95L5.39,50.32L5.39,56.52Z"></path><path class="cls-1 OIkZqjDn_97" d="M12.39,54.68L13.39,54.34L13.39,46.98L12.39,47.51L12.39,54.68Z"></path><path class="cls-1 OIkZqjDn_98" d="M19.34,51.98L20.39,51.5L20.34,43.25L19.34,43.93L19.34,51.98Z"></path><path class="cls-1 OIkZqjDn_99" d="M26.23,48.61L27.23,48.01L27.23,38.52L26.23,39.28L26.23,48.61Z"></path><path class="cls-1 OIkZqjDn_100" d="M33.34,44.15L34.34,43.47L34.34,32.09L33.34,33.13L33.34,44.15Z"></path><path class="cls-1 OIkZqjDn_101" d="M40.17,39.01L41.17,38.05L41.17,23.52L40.17,24.91L40.17,39.01Z"></path><path class="cls-1 OIkZqjDn_102" d="M2.17,63.21L3.17,63.21L3.15,59.84L2.17,60.03L2.17,63.21Z"></path><path class="cls-1 OIkZqjDn_103" d="M9.13,63.21L10.13,63.21L10.13,58.3L9.13,58.55L9.13,63.21Z"></path><path class="cls-1 OIkZqjDn_104" d="M16.13,63.21L17.13,63.21L17.13,56.05L16.13,56.4L16.13,63.21Z"></path><path class="cls-1 OIkZqjDn_105" d="M23.13,63.21L24.13,63.21L24.13,53.08L23.13,53.54L23.13,63.21Z"></path><path class="cls-1 OIkZqjDn_106" d="M30.13,63.21L31.13,63.21L31.13,49.26L30.13,49.88L30.13,63.21Z"></path><path class="cls-1 OIkZqjDn_107" d="M37.17,63.21L38.17,63.21L38.17,44.52L37.17,45.17L37.17,63.21Z"></path><path class="cls-1 OIkZqjDn_108" d="M44.21,63.21L45.21,63.21L45.21,38.73L44.21,39.58L44.21,63.21Z"></path><path class="cls-1 OIkZqjDn_109" d="M51.13,63.21L52.13,63.21L52.13,31.34L51.13,32.45L51.13,63.21Z"></path><path class="cls-1 OIkZqjDn_110" d="M58.21,63.21L59.21,63.21L59.21,22L58.21,23.47L58.21,63.21Z"></path><path class="cls-1 OIkZqjDn_111" d="M132.48,63.21L131.48,63.21L131.5,58.06L132.48,58.21L132.48,63.21Z"></path><path class="cls-1 OIkZqjDn_112" d="M138.34,63.21L137.34,63.21L137.36,58.92L138.34,59.05L138.34,63.21Z"></path><path class="cls-1 OIkZqjDn_113" d="M125.53,63.21L124.53,63.21L124.53,56.37L125.53,56.62L125.53,63.21Z"></path><path class="cls-1 OIkZqjDn_114" d="M64.34,5.45,50.47,8.39l-.81-.81-.59-1.25H45.84L45,8h-.51v2.86C30.57,42.24.68,48.63.68,48.63v3s30.47-7,43.62-33.78V35.19"></path><path class="cls-1 OIkZqjDn_115" d="M61.06,12.77,51,15.37l4.91,5.7a21.55,21.55,0,0,1-3,4.36l-2.42-4.12.12,6.79"></path><path class="cls-1 OIkZqjDn_116" d="M64.46,15.92s-4.67,7.7-5.21,8.3"></path><path class="cls-1 OIkZqjDn_117" d="M64.4,31.07L59.12,24.95"></path><path class="cls-1 OIkZqjDn_118" d="M55.43,29.92L58.27,33.61L58.15,35.61L52.09,37.25L52.22,34.89L55.43,29.92Z"></path><path class="cls-1 OIkZqjDn_119" d="M49.43,10.65L49.61,13.56L52.46,13.01L52.4,10.04L49.43,10.65Z"></path><path class="cls-1 OIkZqjDn_120" d="M49.43,10.65L52.46,13.01"></path><path class="cls-1 OIkZqjDn_121" d="M49.61,13.56L52.4,10.04"></path><path class="cls-1 OIkZqjDn_122" d="M53.12,9.86L53,12.71L56.09,12.1L56.22,9.25L53.12,9.86Z"></path><path class="cls-1 OIkZqjDn_123" d="M53.12,9.86L56.09,12.1"></path><path class="cls-1 OIkZqjDn_124" d="M56.21,9.25L53,12.71"></path><path class="cls-1 OIkZqjDn_125" d="M56.94,8.95L56.82,11.86L59.55,11.38L59.61,8.35L56.94,8.95Z"></path><path class="cls-1 OIkZqjDn_126" d="M56.94,8.95L59.55,11.37"></path><path class="cls-1 OIkZqjDn_127" d="M56.82,11.86L59.61,8.35"></path><path class="cls-1 OIkZqjDn_128" d="M60.46,11.07L63.43,7.62L60.46,8.22L60.46,11.07L62.03,10.89"></path><path class="cls-2 OIkZqjDn_129" d="M60.46,8.22L62.58,9.86"></path><path class="cls-1 OIkZqjDn_130" d="M52.28,43.73L58.09,42.52"></path><path class="cls-1 OIkZqjDn_131" d="M59.3,42.34L62.34,41.55L59.23,45.87L59.3,42.34Z"></path><path class="cls-1 OIkZqjDn_132" d="M52.16,44.64L56.4,49.73L58.24,47.18"></path><path class="cls-1 OIkZqjDn_133" d="M52.11,50.74L54,52.85L52.21,55.62L52.11,50.74Z"></path><path class="cls-1 OIkZqjDn_134" d="M50.41,48.75L51.1,49.66L51.1,57.38L50.55,58.06L50.41,48.75Z"></path><path class="cls-1 OIkZqjDn_135" d="M64.48,45.56L59.24,52.82L64.51,59.17L64.48,45.56Z"></path><path class="cls-1 OIkZqjDn_136" d="M52.13,63.21L58.19,63.2L58.19,57.93L56.8,56.2L52.13,63.21Z"></path><path class="cls-1 OIkZqjDn_137" d="M59.21,59.2L62.41,63.22L64.46,63.22L64.46,59.1"></path><path class="cls-1 OIkZqjDn_138" d="M49.5,39.44L49.5,42.6L50.97,42.29L51.2,39.13L49.5,39.44Z"></path><path class="cls-1 OIkZqjDn_139" d="M49.5,39.44L51.04,40.98L49.5,42.6"></path><path class="cls-1 OIkZqjDn_140" d="M53.05,38.83L53.05,41.6L56.05,40.75L55.97,37.98L53.05,38.83Z"></path><path class="cls-1 OIkZqjDn_141" d="M53.05,38.82L56.05,40.75"></path><path class="cls-1 OIkZqjDn_142" d="M53.05,41.6L55.97,37.98"></path><path class="cls-1 OIkZqjDn_143" d="M56.74,37.82L56.82,40.75L58.13,40.29L58.05,37.44L56.74,37.82Z"></path><path class="cls-1 OIkZqjDn_144" d="M56.74,37.82L57.98,38.83L56.82,40.75"></path><path class="cls-1 OIkZqjDn_145" d="M60.36,36.9L60.36,39.9L63.29,39.36L63.37,36.28L60.36,36.9Z"></path><path class="cls-1 OIkZqjDn_146" d="M60.36,36.9L63.29,39.36"></path><path class="cls-1 OIkZqjDn_147" d="M60.36,39.9L63.37,36.28"></path><path class="cls-1 OIkZqjDn_148" d="M118.53,63.04L118.53,54.31L117.53,53.93L117.53,62.89"></path><path class="cls-1 OIkZqjDn_149" d="M118.53,63.04L118.53,63.21L117.53,63.21L117.53,62.89"></path><path class="cls-1 OIkZqjDn_150" d="M111.53,61.75L111.53,63.21L110.53,63.21L110.53,61.52"></path><path class="cls-1 OIkZqjDn_151" d="M111.53,61.75L111.53,51.36L110.53,50.79L110.53,61.52"></path><path class="cls-1 OIkZqjDn_152" d="M104.53,59.89L104.53,62.68"></path><path class="cls-1 OIkZqjDn_153" d="M104.53,59.88L104.53,47.52L103.53,46.96L103.53,59.58"></path><path class="cls-1 OIkZqjDn_154" d="M103.53,59.58L103.53,62.37"></path><path class="cls-1 OIkZqjDn_155" d="M103.53,62.37L103.53,63.21L104.53,63.21L104.53,62.68"></path><path class="cls-1 OIkZqjDn_156" d="M96.48,59.95L96.48,63.21L97.48,63.21L97.48,60.31"></path><path class="cls-1 OIkZqjDn_157" d="M97.48,57.44L97.48,42.91L96.48,42.2L96.48,57.05"></path><path class="cls-1 OIkZqjDn_158" d="M97.48,57.44L97.48,60.31"></path><path class="cls-1 OIkZqjDn_159" d="M96.48,57.05L96.48,59.95"></path><path class="cls-1 OIkZqjDn_160" d="M90.44,54.41L90.44,57.58"></path><path class="cls-1 OIkZqjDn_161" d="M89.44,53.92L89.44,57.15"></path><path class="cls-1 OIkZqjDn_162" d="M89.44,57.15L89.44,63.21L90.44,63.21L90.44,57.58"></path><path class="cls-1 OIkZqjDn_163" d="M90.44,54.41L90.44,37.26L89.44,36.34L89.44,53.92"></path><path class="cls-1 OIkZqjDn_164" d="M83.53,50.83L83.53,54.43"></path><path class="cls-1 OIkZqjDn_165" d="M82.53,53.92L82.53,63.21L83.53,63.21L83.53,54.43"></path><path class="cls-1 OIkZqjDn_166" d="M82.53,50.26L82.53,53.92"></path><path class="cls-1 OIkZqjDn_167" d="M83.53,50.83L83.53,30.59L82.53,29.55L82.53,50.26"></path><path class="cls-1 OIkZqjDn_168" d="M76.44,46.5L76.44,50.43"></path><path class="cls-1 OIkZqjDn_169" d="M75.41,45.8L75.42,49.75"></path><path class="cls-1 OIkZqjDn_170" d="M75.41,45.8L75.37,21.12L76.44,22.55L76.44,46.5"></path><path class="cls-1 OIkZqjDn_171" d="M76.44,50.43L76.44,63.21L75.44,63.21L75.42,49.75"></path><path class="cls-1 OIkZqjDn_172" d="M111.53,61.75q2.93.66,6,1.14"></path><path class="cls-1 OIkZqjDn_173" d="M75.41,45.8c-3.16-2.17-4.9-3.63-4.9-3.63s-.11,3.46-.11,3.46a32.68,32.68,0,0,0,5,4.13"></path><path class="cls-1 OIkZqjDn_174" d="M76.44,50.43a69.4,69.4,0,0,0,6.08,3.49"></path><path class="cls-1 OIkZqjDn_175" d="M96.48,57c-2.12-.85-4.14-1.74-6-2.64"></path><path class="cls-1 OIkZqjDn_176" d="M103.53,59.58c-2.09-.67-4.11-1.39-6-2.14"></path><path class="cls-1 OIkZqjDn_177" d="M97.48,60.31c2.42.88,4.51,1.57,6,2.05"></path><path class="cls-1 OIkZqjDn_178" d="M83.53,54.43c2,1,4,1.89,5.92,2.72"></path><path class="cls-1 OIkZqjDn_179" d="M110.53,61.52c-2.06-.49-4.06-1-6-1.64"></path><path class="cls-1 OIkZqjDn_180" d="M90.44,57.58c2.11.88,4.16,1.67,6,2.37"></path><path class="cls-1 OIkZqjDn_181" d="M82.53,50.26c-2.34-1.35-4.38-2.63-6.08-3.77"></path><path class="cls-1 OIkZqjDn_182" d="M118.53,63c.86.12,1.73.11,2.6.21l-14.9-.06-1.7-.51"></path><path class="cls-1 OIkZqjDn_183" d="M89.44,53.92c-2.13-1-4.11-2.08-5.92-3.09"></path><style>.OIkZqjDn_0{stroke-dasharray:586 588;stroke-dashoffset:587;animation:OIkZqjDn_draw 2000ms linear 0ms forwards;}.OIkZqjDn_1{stroke-dasharray:35 37;stroke-dashoffset:36;animation:OIkZqjDn_draw 2000ms linear 0ms forwards;}.OIkZqjDn_2{stroke-dasharray:35 37;stroke-dashoffset:36;animation:OIkZqjDn_draw 2000ms linear 0ms forwards;}.OIkZqjDn_3{stroke-dasharray:15 17;stroke-dashoffset:16;animation:OIkZqjDn_draw 2000ms linear 0ms forwards;}.OIkZqjDn_4{stroke-dasharray:17 19;stroke-dashoffset:18;animation:OIkZqjDn_draw 2000ms linear 0ms forwards;}.OIkZqjDn_5{stroke-dasharray:19 21;stroke-dashoffset:20;animation:OIkZqjDn_draw 2000ms linear 0ms forwards;}.OIkZqjDn_6{stroke-dasharray:22 24;stroke-dashoffset:23;animation:OIkZqjDn_draw 2000ms linear 0ms forwards;}.OIkZqjDn_7{stroke-dasharray:26 28;stroke-dashoffset:27;animation:OIkZqjDn_draw 2000ms linear 0ms forwards;}.OIkZqjDn_8{stroke-dasharray:32 34;stroke-dashoffset:33;animation:OIkZqjDn_draw 2000ms linear 0ms forwards;}.OIkZqjDn_9{stroke-dasharray:9 11;stroke-dashoffset:10;animation:OIkZqjDn_draw 2000ms linear 0ms forwards;}.OIkZqjDn_10{stroke-dasharray:12 14;stroke-dashoffset:13;animation:OIkZqjDn_draw 2000ms linear 0ms forwards;}.OIkZqjDn_11{stroke-dasharray:17 19;stroke-dashoffset:18;animation:OIkZqjDn_draw 2000ms linear 0ms forwards;}.OIkZqjDn_12{stroke-dasharray:22 24;stroke-dashoffset:23;animation:OIkZqjDn_draw 2000ms linear 0ms forwards;}.OIkZqjDn_13{stroke-dasharray:30 32;stroke-dashoffset:31;animation:OIkZqjDn_draw 2000ms linear 0ms forwards;}.OIkZqjDn_14{stroke-dasharray:39 41;stroke-dashoffset:40;animation:OIkZqjDn_draw 2000ms linear 0ms forwards;}.OIkZqjDn_15{stroke-dasharray:51 53;stroke-dashoffset:52;animation:OIkZqjDn_draw 2000ms linear 0ms forwards;}.OIkZqjDn_16{stroke-dasharray:66 68;stroke-dashoffset:67;animation:OIkZqjDn_draw 2000ms linear 0ms forwards;}.OIkZqjDn_17{stroke-dasharray:84 86;stroke-dashoffset:85;animation:OIkZqjDn_draw 2000ms linear 0ms forwards;}.OIkZqjDn_18{stroke-dasharray:13 15;stroke-dashoffset:14;animation:OIkZqjDn_draw 2000ms linear 0ms forwards;}.OIkZqjDn_19{stroke-dasharray:11 13;stroke-dashoffset:12;animation:OIkZqjDn_draw 2000ms linear 0ms forwards;}.OIkZqjDn_20{stroke-dasharray:16 18;stroke-dashoffset:17;animation:OIkZqjDn_draw 2000ms linear 0ms forwards;}.OIkZqjDn_21{stroke-dasharray:163 165;stroke-dashoffset:164;animation:OIkZqjDn_draw 2000ms linear 0ms forwards;}.OIkZqjDn_22{stroke-dasharray:35 37;stroke-dashoffset:36;animation:OIkZqjDn_draw 2000ms linear 0ms forwards;}.OIkZqjDn_23{stroke-dasharray:10 12;stroke-dashoffset:11;animation:OIkZqjDn_draw 2000ms linear 0ms forwards;}.OIkZqjDn_24{stroke-dasharray:9 11;stroke-dashoffset:10;animation:OIkZqjDn_draw 2000ms linear 0ms forwards;}.OIkZqjDn_25{stroke-dasharray:22 24;stroke-dashoffset:23;animation:OIkZqjDn_draw 2000ms linear 0ms forwards;}.OIkZqjDn_26{stroke-dasharray:12 14;stroke-dashoffset:13;animation:OIkZqjDn_draw 2000ms linear 0ms forwards;}.OIkZqjDn_27{stroke-dasharray:4 6;stroke-dashoffset:5;animation:OIkZqjDn_draw 2000ms linear 0ms forwards;}.OIkZqjDn_28{stroke-dasharray:5 7;stroke-dashoffset:6;animation:OIkZqjDn_draw 2000ms linear 0ms forwards;}.OIkZqjDn_29{stroke-dasharray:13 15;stroke-dashoffset:14;animation:OIkZqjDn_draw 2000ms linear 0ms forwards;}.OIkZqjDn_30{stroke-dasharray:4 6;stroke-dashoffset:5;animation:OIkZqjDn_draw 2000ms linear 0ms forwards;}.OIkZqjDn_31{stroke-dasharray:5 7;stroke-dashoffset:6;animation:OIkZqjDn_draw 2000ms linear 0ms forwards;}.OIkZqjDn_32{stroke-dasharray:12 14;stroke-dashoffset:13;animation:OIkZqjDn_draw 2000ms linear 0ms forwards;}.OIkZqjDn_33{stroke-dasharray:4 6;stroke-dashoffset:5;animation:OIkZqjDn_draw 2000ms linear 0ms forwards;}.OIkZqjDn_34{stroke-dasharray:5 7;stroke-dashoffset:6;animation:OIkZqjDn_draw 2000ms linear 0ms forwards;}.OIkZqjDn_35{stroke-dasharray:13 15;stroke-dashoffset:14;animation:OIkZqjDn_draw 2000ms linear 0ms forwards;}.OIkZqjDn_36{stroke-dasharray:3 5;stroke-dashoffset:4;animation:OIkZqjDn_draw 2000ms linear 0ms forwards;}.OIkZqjDn_37{stroke-dasharray:6 8;stroke-dashoffset:7;animation:OIkZqjDn_draw 2000ms linear 0ms forwards;}.OIkZqjDn_38{stroke-dasharray:12 14;stroke-dashoffset:13;animation:OIkZqjDn_draw 2000ms linear 0ms forwards;}.OIkZqjDn_39{stroke-dasharray:10 12;stroke-dashoffset:11;animation:OIkZqjDn_draw 2000ms linear 0ms forwards;}.OIkZqjDn_40{stroke-dasharray:12 14;stroke-dashoffset:13;animation:OIkZqjDn_draw 2000ms linear 0ms forwards;}.OIkZqjDn_41{stroke-dasharray:20 22;stroke-dashoffset:21;animation:OIkZqjDn_draw 2000ms linear 0ms forwards;}.OIkZqjDn_42{stroke-dasharray:31 33;stroke-dashoffset:32;animation:OIkZqjDn_draw 2000ms linear 0ms forwards;}.OIkZqjDn_43{stroke-dasharray:22 24;stroke-dashoffset:23;animation:OIkZqjDn_draw 2000ms linear 0ms forwards;}.OIkZqjDn_44{stroke-dasharray:12 14;stroke-dashoffset:13;animation:OIkZqjDn_draw 2000ms linear 0ms forwards;}.OIkZqjDn_45{stroke-dasharray:10 12;stroke-dashoffset:11;animation:OIkZqjDn_draw 2000ms linear 0ms forwards;}.OIkZqjDn_46{stroke-dasharray:5 7;stroke-dashoffset:6;animation:OIkZqjDn_draw 2000ms linear 0ms forwards;}.OIkZqjDn_47{stroke-dasharray:12 14;stroke-dashoffset:13;animation:OIkZqjDn_draw 2000ms linear 0ms forwards;}.OIkZqjDn_48{stroke-dasharray:4 6;stroke-dashoffset:5;animation:OIkZqjDn_draw 2000ms linear 0ms forwards;}.OIkZqjDn_49{stroke-dasharray:5 7;stroke-dashoffset:6;animation:OIkZqjDn_draw 2000ms linear 0ms forwards;}.OIkZqjDn_50{stroke-dasharray:9 11;stroke-dashoffset:10;animation:OIkZqjDn_draw 2000ms linear 0ms forwards;}.OIkZqjDn_51{stroke-dasharray:4 6;stroke-dashoffset:5;animation:OIkZqjDn_draw 2000ms linear 0ms forwards;}.OIkZqjDn_52{stroke-dasharray:13 15;stroke-dashoffset:14;animation:OIkZqjDn_draw 2000ms linear 0ms forwards;}.OIkZqjDn_53{stroke-dasharray:4 6;stroke-dashoffset:5;animation:OIkZqjDn_draw 2000ms linear 0ms forwards;}.OIkZqjDn_54{stroke-dasharray:5 7;stroke-dashoffset:6;animation:OIkZqjDn_draw 2000ms linear 0ms forwards;}.OIkZqjDn_55{stroke-dasharray:19 21;stroke-dashoffset:20;animation:OIkZqjDn_draw 2000ms linear 0ms forwards;}.OIkZqjDn_56{stroke-dasharray:2 4;stroke-dashoffset:3;animation:OIkZqjDn_draw 2000ms linear 0ms forwards;}.OIkZqjDn_57{stroke-dasharray:5 7;stroke-dashoffset:6;animation:OIkZqjDn_draw 2000ms linear 0ms forwards;}.OIkZqjDn_58{stroke-dasharray:23 25;stroke-dashoffset:24;animation:OIkZqjDn_draw 2000ms linear 0ms forwards;}.OIkZqjDn_59{stroke-dasharray:3 5;stroke-dashoffset:4;animation:OIkZqjDn_draw 2000ms linear 0ms forwards;}.OIkZqjDn_60{stroke-dasharray:27 29;stroke-dashoffset:28;animation:OIkZqjDn_draw 2000ms linear 0ms forwards;}.OIkZqjDn_61{stroke-dasharray:3 5;stroke-dashoffset:4;animation:OIkZqjDn_draw 2000ms linear 0ms forwards;}.OIkZqjDn_62{stroke-dasharray:3 5;stroke-dashoffset:4;animation:OIkZqjDn_draw 2000ms linear 0ms forwards;}.OIkZqjDn_63{stroke-dasharray:8 10;stroke-dashoffset:9;animation:OIkZqjDn_draw 2000ms linear 0ms forwards;}.OIkZqjDn_64{stroke-dasharray:31 33;stroke-dashoffset:32;animation:OIkZqjDn_draw 2000ms linear 0ms forwards;}.OIkZqjDn_65{stroke-dasharray:3 5;stroke-dashoffset:4;animation:OIkZqjDn_draw 2000ms linear 0ms forwards;}.OIkZqjDn_66{stroke-dasharray:3 5;stroke-dashoffset:4;animation:OIkZqjDn_draw 2000ms linear 0ms forwards;}.OIkZqjDn_67{stroke-dasharray:4 6;stroke-dashoffset:5;animation:OIkZqjDn_draw 2000ms linear 0ms forwards;}.OIkZqjDn_68{stroke-dasharray:4 6;stroke-dashoffset:5;animation:OIkZqjDn_draw 2000ms linear 0ms forwards;}.OIkZqjDn_69{stroke-dasharray:13 15;stroke-dashoffset:14;animation:OIkZqjDn_draw 2000ms linear 0ms forwards;}.OIkZqjDn_70{stroke-dasharray:37 39;stroke-dashoffset:38;animation:OIkZqjDn_draw 2000ms linear 0ms forwards;}.OIkZqjDn_71{stroke-dasharray:4 6;stroke-dashoffset:5;animation:OIkZqjDn_draw 2000ms linear 0ms forwards;}.OIkZqjDn_72{stroke-dasharray:20 22;stroke-dashoffset:21;animation:OIkZqjDn_draw 2000ms linear 0ms forwards;}.OIkZqjDn_73{stroke-dasharray:4 6;stroke-dashoffset:5;animation:OIkZqjDn_draw 2000ms linear 0ms forwards;}.OIkZqjDn_74{stroke-dasharray:43 45;stroke-dashoffset:44;animation:OIkZqjDn_draw 2000ms linear 0ms forwards;}.OIkZqjDn_75{stroke-dasharray:4 6;stroke-dashoffset:5;animation:OIkZqjDn_draw 2000ms linear 0ms forwards;}.OIkZqjDn_76{stroke-dasharray:4 6;stroke-dashoffset:5;animation:OIkZqjDn_draw 2000ms linear 0ms forwards;}.OIkZqjDn_77{stroke-dasharray:51 53;stroke-dashoffset:52;animation:OIkZqjDn_draw 2000ms linear 0ms forwards;}.OIkZqjDn_78{stroke-dasharray:28 30;stroke-dashoffset:29;animation:OIkZqjDn_draw 2000ms linear 0ms forwards;}.OIkZqjDn_79{stroke-dasharray:7 9;stroke-dashoffset:8;animation:OIkZqjDn_draw 2000ms linear 0ms forwards;}.OIkZqjDn_80{stroke-dasharray:17 19;stroke-dashoffset:18;animation:OIkZqjDn_draw 2000ms linear 0ms forwards;}.OIkZqjDn_81{stroke-dasharray:8 10;stroke-dashoffset:9;animation:OIkZqjDn_draw 2000ms linear 0ms forwards;}.OIkZqjDn_82{stroke-dasharray:7 9;stroke-dashoffset:8;animation:OIkZqjDn_draw 2000ms linear 0ms forwards;}.OIkZqjDn_83{stroke-dasharray:7 9;stroke-dashoffset:8;animation:OIkZqjDn_draw 2000ms linear 0ms forwards;}.OIkZqjDn_84{stroke-dasharray:7 9;stroke-dashoffset:8;animation:OIkZqjDn_draw 2000ms linear 0ms forwards;}.OIkZqjDn_85{stroke-dasharray:7 9;stroke-dashoffset:8;animation:OIkZqjDn_draw 2000ms linear 0ms forwards;}.OIkZqjDn_86{stroke-dasharray:7 9;stroke-dashoffset:8;animation:OIkZqjDn_draw 2000ms linear 0ms forwards;}.OIkZqjDn_87{stroke-dasharray:7 9;stroke-dashoffset:8;animation:OIkZqjDn_draw 2000ms linear 0ms forwards;}.OIkZqjDn_88{stroke-dasharray:8 10;stroke-dashoffset:9;animation:OIkZqjDn_draw 2000ms linear 0ms forwards;}.OIkZqjDn_89{stroke-dasharray:20 22;stroke-dashoffset:21;animation:OIkZqjDn_draw 2000ms linear 0ms forwards;}.OIkZqjDn_90{stroke-dasharray:7 9;stroke-dashoffset:8;animation:OIkZqjDn_draw 2000ms linear 0ms forwards;}.OIkZqjDn_91{stroke-dasharray:586 588;stroke-dashoffset:587;animation:OIkZqjDn_draw 2000ms linear 0ms forwards;}.OIkZqjDn_92{stroke-dasharray:35 37;stroke-dashoffset:36;animation:OIkZqjDn_draw 2000ms linear 0ms forwards;}.OIkZqjDn_93{stroke-dasharray:35 37;stroke-dashoffset:36;animation:OIkZqjDn_draw 2000ms linear 0ms forwards;}.OIkZqjDn_94{stroke-dasharray:658 660;stroke-dashoffset:659;animation:OIkZqjDn_draw 2000ms linear 0ms forwards;}.OIkZqjDn_95{stroke-dasharray:280 282;stroke-dashoffset:281;animation:OIkZqjDn_draw 2000ms linear 0ms forwards;}.OIkZqjDn_96{stroke-dasharray:15 17;stroke-dashoffset:16;animation:OIkZqjDn_draw 2000ms linear 0ms forwards;}.OIkZqjDn_97{stroke-dasharray:17 19;stroke-dashoffset:18;animation:OIkZqjDn_draw 2000ms linear 0ms forwards;}.OIkZqjDn_98{stroke-dasharray:19 21;stroke-dashoffset:20;animation:OIkZqjDn_draw 2000ms linear 0ms forwards;}.OIkZqjDn_99{stroke-dasharray:22 24;stroke-dashoffset:23;animation:OIkZqjDn_draw 2000ms linear 0ms forwards;}.OIkZqjDn_100{stroke-dasharray:26 28;stroke-dashoffset:27;animation:OIkZqjDn_draw 2000ms linear 0ms forwards;}.OIkZqjDn_101{stroke-dasharray:32 34;stroke-dashoffset:33;animation:OIkZqjDn_draw 2000ms linear 0ms forwards;}.OIkZqjDn_102{stroke-dasharray:9 11;stroke-dashoffset:10;animation:OIkZqjDn_draw 2000ms linear 0ms forwards;}.OIkZqjDn_103{stroke-dasharray:12 14;stroke-dashoffset:13;animation:OIkZqjDn_draw 2000ms linear 0ms forwards;}.OIkZqjDn_104{stroke-dasharray:17 19;stroke-dashoffset:18;animation:OIkZqjDn_draw 2000ms linear 0ms forwards;}.OIkZqjDn_105{stroke-dasharray:22 24;stroke-dashoffset:23;animation:OIkZqjDn_draw 2000ms linear 0ms forwards;}.OIkZqjDn_106{stroke-dasharray:30 32;stroke-dashoffset:31;animation:OIkZqjDn_draw 2000ms linear 0ms forwards;}.OIkZqjDn_107{stroke-dasharray:39 41;stroke-dashoffset:40;animation:OIkZqjDn_draw 2000ms linear 0ms forwards;}.OIkZqjDn_108{stroke-dasharray:51 53;stroke-dashoffset:52;animation:OIkZqjDn_draw 2000ms linear 0ms forwards;}.OIkZqjDn_109{stroke-dasharray:66 68;stroke-dashoffset:67;animation:OIkZqjDn_draw 2000ms linear 0ms forwards;}.OIkZqjDn_110{stroke-dasharray:84 86;stroke-dashoffset:85;animation:OIkZqjDn_draw 2000ms linear 0ms forwards;}.OIkZqjDn_111{stroke-dasharray:13 15;stroke-dashoffset:14;animation:OIkZqjDn_draw 2000ms linear 0ms forwards;}.OIkZqjDn_112{stroke-dasharray:11 13;stroke-dashoffset:12;animation:OIkZqjDn_draw 2000ms linear 0ms forwards;}.OIkZqjDn_113{stroke-dasharray:16 18;stroke-dashoffset:17;animation:OIkZqjDn_draw 2000ms linear 0ms forwards;}.OIkZqjDn_114{stroke-dasharray:163 165;stroke-dashoffset:164;animation:OIkZqjDn_draw 2000ms linear 0ms forwards;}.OIkZqjDn_115{stroke-dasharray:35 37;stroke-dashoffset:36;animation:OIkZqjDn_draw 2000ms linear 0ms forwards;}.OIkZqjDn_116{stroke-dasharray:10 12;stroke-dashoffset:11;animation:OIkZqjDn_draw 2000ms linear 0ms forwards;}.OIkZqjDn_117{stroke-dasharray:9 11;stroke-dashoffset:10;animation:OIkZqjDn_draw 2000ms linear 0ms forwards;}.OIkZqjDn_118{stroke-dasharray:22 24;stroke-dashoffset:23;animation:OIkZqjDn_draw 2000ms linear 0ms forwards;}.OIkZqjDn_119{stroke-dasharray:12 14;stroke-dashoffset:13;animation:OIkZqjDn_draw 2000ms linear 0ms forwards;}.OIkZqjDn_120{stroke-dasharray:4 6;stroke-dashoffset:5;animation:OIkZqjDn_draw 2000ms linear 0ms forwards;}.OIkZqjDn_121{stroke-dasharray:5 7;stroke-dashoffset:6;animation:OIkZqjDn_draw 2000ms linear 0ms forwards;}.OIkZqjDn_122{stroke-dasharray:13 15;stroke-dashoffset:14;animation:OIkZqjDn_draw 2000ms linear 0ms forwards;}.OIkZqjDn_123{stroke-dasharray:4 6;stroke-dashoffset:5;animation:OIkZqjDn_draw 2000ms linear 0ms forwards;}.OIkZqjDn_124{stroke-dasharray:5 7;stroke-dashoffset:6;animation:OIkZqjDn_draw 2000ms linear 0ms forwards;}.OIkZqjDn_125{stroke-dasharray:12 14;stroke-dashoffset:13;animation:OIkZqjDn_draw 2000ms linear 0ms forwards;}.OIkZqjDn_126{stroke-dasharray:4 6;stroke-dashoffset:5;animation:OIkZqjDn_draw 2000ms linear 0ms forwards;}.OIkZqjDn_127{stroke-dasharray:5 7;stroke-dashoffset:6;animation:OIkZqjDn_draw 2000ms linear 0ms forwards;}.OIkZqjDn_128{stroke-dasharray:13 15;stroke-dashoffset:14;animation:OIkZqjDn_draw 2000ms linear 0ms forwards;}.OIkZqjDn_129{stroke-dasharray:3 5;stroke-dashoffset:4;animation:OIkZqjDn_draw 2000ms linear 0ms forwards;}.OIkZqjDn_130{stroke-dasharray:6 8;stroke-dashoffset:7;animation:OIkZqjDn_draw 2000ms linear 0ms forwards;}.OIkZqjDn_131{stroke-dasharray:12 14;stroke-dashoffset:13;animation:OIkZqjDn_draw 2000ms linear 0ms forwards;}.OIkZqjDn_132{stroke-dasharray:10 12;stroke-dashoffset:11;animation:OIkZqjDn_draw 2000ms linear 0ms forwards;}.OIkZqjDn_133{stroke-dasharray:12 14;stroke-dashoffset:13;animation:OIkZqjDn_draw 2000ms linear 0ms forwards;}.OIkZqjDn_134{stroke-dasharray:20 22;stroke-dashoffset:21;animation:OIkZqjDn_draw 2000ms linear 0ms forwards;}.OIkZqjDn_135{stroke-dasharray:31 33;stroke-dashoffset:32;animation:OIkZqjDn_draw 2000ms linear 0ms forwards;}.OIkZqjDn_136{stroke-dasharray:22 24;stroke-dashoffset:23;animation:OIkZqjDn_draw 2000ms linear 0ms forwards;}.OIkZqjDn_137{stroke-dasharray:12 14;stroke-dashoffset:13;animation:OIkZqjDn_draw 2000ms linear 0ms forwards;}.OIkZqjDn_138{stroke-dasharray:10 12;stroke-dashoffset:11;animation:OIkZqjDn_draw 2000ms linear 0ms forwards;}.OIkZqjDn_139{stroke-dasharray:5 7;stroke-dashoffset:6;animation:OIkZqjDn_draw 2000ms linear 0ms forwards;}.OIkZqjDn_140{stroke-dasharray:12 14;stroke-dashoffset:13;animation:OIkZqjDn_draw 2000ms linear 0ms forwards;}.OIkZqjDn_141{stroke-dasharray:4 6;stroke-dashoffset:5;animation:OIkZqjDn_draw 2000ms linear 0ms forwards;}.OIkZqjDn_142{stroke-dasharray:5 7;stroke-dashoffset:6;animation:OIkZqjDn_draw 2000ms linear 0ms forwards;}.OIkZqjDn_143{stroke-dasharray:9 11;stroke-dashoffset:10;animation:OIkZqjDn_draw 2000ms linear 0ms forwards;}.OIkZqjDn_144{stroke-dasharray:4 6;stroke-dashoffset:5;animation:OIkZqjDn_draw 2000ms linear 0ms forwards;}.OIkZqjDn_145{stroke-dasharray:13 15;stroke-dashoffset:14;animation:OIkZqjDn_draw 2000ms linear 0ms forwards;}.OIkZqjDn_146{stroke-dasharray:4 6;stroke-dashoffset:5;animation:OIkZqjDn_draw 2000ms linear 0ms forwards;}.OIkZqjDn_147{stroke-dasharray:5 7;stroke-dashoffset:6;animation:OIkZqjDn_draw 2000ms linear 0ms forwards;}.OIkZqjDn_148{stroke-dasharray:19 21;stroke-dashoffset:20;animation:OIkZqjDn_draw 2000ms linear 0ms forwards;}.OIkZqjDn_149{stroke-dasharray:2 4;stroke-dashoffset:3;animation:OIkZqjDn_draw 2000ms linear 0ms forwards;}.OIkZqjDn_150{stroke-dasharray:5 7;stroke-dashoffset:6;animation:OIkZqjDn_draw 2000ms linear 0ms forwards;}.OIkZqjDn_151{stroke-dasharray:23 25;stroke-dashoffset:24;animation:OIkZqjDn_draw 2000ms linear 0ms forwards;}.OIkZqjDn_152{stroke-dasharray:3 5;stroke-dashoffset:4;animation:OIkZqjDn_draw 2000ms linear 0ms forwards;}.OIkZqjDn_153{stroke-dasharray:27 29;stroke-dashoffset:28;animation:OIkZqjDn_draw 2000ms linear 0ms forwards;}.OIkZqjDn_154{stroke-dasharray:3 5;stroke-dashoffset:4;animation:OIkZqjDn_draw 2000ms linear 0ms forwards;}.OIkZqjDn_155{stroke-dasharray:3 5;stroke-dashoffset:4;animation:OIkZqjDn_draw 2000ms linear 0ms forwards;}.OIkZqjDn_156{stroke-dasharray:8 10;stroke-dashoffset:9;animation:OIkZqjDn_draw 2000ms linear 0ms forwards;}.OIkZqjDn_157{stroke-dasharray:31 33;stroke-dashoffset:32;animation:OIkZqjDn_draw 2000ms linear 0ms forwards;}.OIkZqjDn_158{stroke-dasharray:3 5;stroke-dashoffset:4;animation:OIkZqjDn_draw 2000ms linear 0ms forwards;}.OIkZqjDn_159{stroke-dasharray:3 5;stroke-dashoffset:4;animation:OIkZqjDn_draw 2000ms linear 0ms forwards;}.OIkZqjDn_160{stroke-dasharray:4 6;stroke-dashoffset:5;animation:OIkZqjDn_draw 2000ms linear 0ms forwards;}.OIkZqjDn_161{stroke-dasharray:4 6;stroke-dashoffset:5;animation:OIkZqjDn_draw 2000ms linear 0ms forwards;}.OIkZqjDn_162{stroke-dasharray:13 15;stroke-dashoffset:14;animation:OIkZqjDn_draw 2000ms linear 0ms forwards;}.OIkZqjDn_163{stroke-dasharray:37 39;stroke-dashoffset:38;animation:OIkZqjDn_draw 2000ms linear 0ms forwards;}.OIkZqjDn_164{stroke-dasharray:4 6;stroke-dashoffset:5;animation:OIkZqjDn_draw 2000ms linear 0ms forwards;}.OIkZqjDn_165{stroke-dasharray:20 22;stroke-dashoffset:21;animation:OIkZqjDn_draw 2000ms linear 0ms forwards;}.OIkZqjDn_166{stroke-dasharray:4 6;stroke-dashoffset:5;animation:OIkZqjDn_draw 2000ms linear 0ms forwards;}.OIkZqjDn_167{stroke-dasharray:43 45;stroke-dashoffset:44;animation:OIkZqjDn_draw 2000ms linear 0ms forwards;}.OIkZqjDn_168{stroke-dasharray:4 6;stroke-dashoffset:5;animation:OIkZqjDn_draw 2000ms linear 0ms forwards;}.OIkZqjDn_169{stroke-dasharray:4 6;stroke-dashoffset:5;animation:OIkZqjDn_draw 2000ms linear 0ms forwards;}.OIkZqjDn_170{stroke-dasharray:51 53;stroke-dashoffset:52;animation:OIkZqjDn_draw 2000ms linear 0ms forwards;}.OIkZqjDn_171{stroke-dasharray:28 30;stroke-dashoffset:29;animation:OIkZqjDn_draw 2000ms linear 0ms forwards;}.OIkZqjDn_172{stroke-dasharray:7 9;stroke-dashoffset:8;animation:OIkZqjDn_draw 2000ms linear 0ms forwards;}.OIkZqjDn_173{stroke-dasharray:17 19;stroke-dashoffset:18;animation:OIkZqjDn_draw 2000ms linear 0ms forwards;}.OIkZqjDn_174{stroke-dasharray:8 10;stroke-dashoffset:9;animation:OIkZqjDn_draw 2000ms linear 0ms forwards;}.OIkZqjDn_175{stroke-dasharray:7 9;stroke-dashoffset:8;animation:OIkZqjDn_draw 2000ms linear 0ms forwards;}.OIkZqjDn_176{stroke-dasharray:7 9;stroke-dashoffset:8;animation:OIkZqjDn_draw 2000ms linear 0ms forwards;}.OIkZqjDn_177{stroke-dasharray:7 9;stroke-dashoffset:8;animation:OIkZqjDn_draw 2000ms linear 0ms forwards;}.OIkZqjDn_178{stroke-dasharray:7 9;stroke-dashoffset:8;animation:OIkZqjDn_draw 2000ms linear 0ms forwards;}.OIkZqjDn_179{stroke-dasharray:7 9;stroke-dashoffset:8;animation:OIkZqjDn_draw 2000ms linear 0ms forwards;}.OIkZqjDn_180{stroke-dasharray:7 9;stroke-dashoffset:8;animation:OIkZqjDn_draw 2000ms linear 0ms forwards;}.OIkZqjDn_181{stroke-dasharray:8 10;stroke-dashoffset:9;animation:OIkZqjDn_draw 2000ms linear 0ms forwards;}.OIkZqjDn_182{stroke-dasharray:20 22;stroke-dashoffset:21;animation:OIkZqjDn_draw 2000ms linear 0ms forwards;}.OIkZqjDn_183{stroke-dasharray:7 9;stroke-dashoffset:8;animation:OIkZqjDn_draw 2000ms linear 0ms forwards;}@keyframes OIkZqjDn_draw{100%{stroke-dashoffset:0;}}@keyframes OIkZqjDn_fade{0%{stroke-opacity:1;}93.54838709677419%{stroke-opacity:1;}100%{stroke-opacity:0;}}</style></svg>