<?xml version="1.0" encoding="utf-8"?>
<!-- Generator: Adobe Illustrator 16.0.3, SVG Export Plug-In . SVG Version: 6.00 Build 0)  -->
<!DOCTYPE svg PUBLIC "-//W3C//DTD SVG 1.1//EN" "http://www.w3.org/Graphics/SVG/1.1/DTD/svg11.dtd">
<svg version="1.1" id="Layer_1" xmlns="http://www.w3.org/2000/svg" xmlns:xlink="http://www.w3.org/1999/xlink" x="0px" y="0px"
	 width="470.021px" height="133.577px" viewBox="0 0 470.021 133.577" enable-background="new 0 0 470.021 133.577"
	 xml:space="preserve">
<g>
	<path fill="#FC3C2D" d="M38.292,3.38h12.996v53.352H38.292V34.616H17.696v22.116H4.7V3.38h12.996v21.356h20.596V3.38z"/>
	<path fill="#263238" d="M62.459,35.224V3.38h12.996v31.844c0,3.192,0.785,5.65,2.356,7.372c1.57,1.723,3.876,2.584,6.916,2.584
		c3.04,0,5.37-0.861,6.992-2.584c1.621-1.722,2.432-4.18,2.432-7.372V3.38h12.996v31.844c0,4.712-1.102,8.778-3.306,12.198
		s-4.991,5.916-8.36,7.486c-3.37,1.571-7.03,2.356-10.982,2.356c-6.182,0-11.4-1.925-15.656-5.776
		C64.587,47.638,62.459,42.216,62.459,35.224z"/>
	<path fill="#263238" d="M178.662,3.38v53.352h-12.996V26.636l-12.388,30.096h-9.652l-12.388-30.096v30.096h-12.996V3.38h14.896
		l15.352,36.784L163.766,3.38H178.662z"/>
	<path fill="#263238" d="M223.957,56.732l-2.964-8.968h-19.151l-2.965,8.968h-13.832l18.544-53.504h15.809l18.468,53.504H223.957z
		 M205.109,37.884h12.616l-6.309-19L205.109,37.884z"/>
	<path fill="#263238" d="M278.98,3.228h12.996v53.504H278.98l-21.735-33.668v33.668h-12.996V3.228h12.996l21.735,33.668V3.228z"/>
	<path fill="#FC3C2D" d="M37,75.248v9.88H17.696v11.476H34.72v9.88H17.696v12.388H37v9.88H4.7V75.248H37z"/>
	<path fill="#FC3C2D" d="M94.683,75.4l-16.872,26.752l16.796,26.6H79.863l-9.804-15.504l-9.044,15.504H46.271l16.796-26.676
		L46.271,75.4h14.744l9.804,15.58l9.12-15.58H94.683z"/>
	<path fill="#263238" d="M144.767,91.74c0,3.598-1.292,7.068-3.876,10.412c-1.368,1.723-3.408,3.129-6.118,4.218
		c-2.711,1.09-5.917,1.634-9.614,1.634h-8.056v20.748h-12.996V75.4h21.052c6.181,0,10.994,1.596,14.44,4.788
		C143.043,83.38,144.767,87.231,144.767,91.74z M117.103,98.124h8.056c1.976,0,3.534-0.582,4.674-1.748
		c1.14-1.165,1.71-2.698,1.71-4.598s-0.583-3.458-1.748-4.674c-1.167-1.216-2.711-1.824-4.636-1.824h-8.056V98.124z"/>
	<path fill="#263238" d="M184.894,75.248v9.88H165.59v11.476h17.023v9.88H165.59v12.388h19.304v9.88h-32.3V75.248H184.894z"/>
	<path fill="#263238" d="M209.062,108.004v20.748h-12.996V75.4h21.052c6.181,0,10.994,1.596,14.44,4.788
		c3.444,3.192,5.168,7.043,5.168,11.552c0,3.091-0.938,6.106-2.812,9.044c-1.875,2.939-4.939,5.016-9.196,6.232l13.072,21.736h-15.2
		l-12.008-20.748H209.062z M209.062,85.28v12.844h8.056c1.976,0,3.534-0.582,4.674-1.748c1.141-1.165,1.71-2.698,1.71-4.598
		s-0.583-3.458-1.748-4.674c-1.166-1.216-2.711-1.824-4.636-1.824H209.062z"/>
	<path fill="#263238" d="M246.833,128.752V75.4h12.996v53.352H246.833z"/>
	<path fill="#263238" d="M303.529,75.248v9.88h-19.304v11.476h17.023v9.88h-17.023v12.388h19.304v9.88h-32.3V75.248H303.529z"/>
	<path fill="#263238" d="M349.432,75.248h12.996v53.504h-12.996l-21.735-33.668v33.668H314.7V75.248h12.996l21.735,33.668V75.248z"
		/>
	<path fill="#263238" d="M378.654,121.494c-5.296-5.142-7.942-11.666-7.942-19.57c0-7.904,2.646-14.427,7.942-19.57
		c5.294-5.142,11.767-7.714,19.418-7.714c5.928,0,11.196,1.571,15.808,4.712c4.61,3.142,7.828,7.499,9.652,13.072h-15.504
		c-2.027-3.901-5.271-5.852-9.729-5.852c-4.459,0-7.968,1.395-10.525,4.18c-2.56,2.787-3.839,6.511-3.839,11.172
		c0,4.662,1.279,8.386,3.839,11.172c2.558,2.787,6.066,4.18,10.525,4.18c4.458,0,7.701-1.95,9.729-5.852h15.504
		c-1.824,5.574-5.042,9.931-9.652,13.072c-4.611,3.142-9.88,4.712-15.808,4.712C390.421,129.208,383.948,126.637,378.654,121.494z"
		/>
	<path fill="#263238" d="M464.191,75.248v9.88h-19.304v11.476h17.023v9.88h-17.023v12.388h19.304v9.88h-32.3V75.248H464.191z"/>
</g>
</svg>
